<svg xmlns="http://www.w3.org/2000/svg" xmlns:xlink="http://www.w3.org/1999/xlink" width="500" zoomAndPan="magnify" viewBox="0 0 375 374.999991" height="500" preserveAspectRatio="xMidYMid meet" version="1.0"><defs><clipPath id="5fcebe5900"><path d="M 7.582031 92.519531 L 171.765625 92.519531 L 171.765625 365.921875 L 7.582031 365.921875 Z M 7.582031 92.519531 " clip-rule="nonzero"/></clipPath><clipPath id="4378a10043"><path d="M 203 8.921875 L 367.800781 8.921875 L 367.800781 283 L 203 283 Z M 203 8.921875 " clip-rule="nonzero"/></clipPath><clipPath id="542f8fd855"><path d="M 7.582031 92.519531 L 171.765625 92.519531 L 171.765625 365.921875 L 7.582031 365.921875 Z M 7.582031 92.519531 " clip-rule="nonzero"/></clipPath><clipPath id="2c8d31b4ad"><path d="M 203 8.921875 L 367.800781 8.921875 L 367.800781 283 L 203 283 Z M 203 8.921875 " clip-rule="nonzero"/></clipPath></defs><g clip-path="url(#5fcebe5900)"><path fill="#ffffff" d="M 20.5 104.519531 C 20.5 100.519531 20.644531 96.554688 20.894531 92.617188 C 26.199219 175.976562 86.78125 244.292969 166.382812 261.339844 L 171.511719 262.367188 L 151.839844 360.171875 L 150.648438 366.097656 C 68.039062 342.40625 7.582031 266.308594 7.582031 176.082031 C 7.582031 171.804688 7.734375 167.558594 8 163.351562 C 13.039062 242.53125 64.703125 309 135.828125 335.6875 L 147.050781 279.886719 C 73.535156 255.507812 20.5 186.210938 20.5 104.519531 " fill-opacity="1" fill-rule="nonzero"/></g><path fill="#ffffff" d="M 210.070312 229.246094 L 215.027344 227.574219 L 246.894531 322.113281 L 248.824219 327.835938 C 220.609375 334.871094 191.59375 335.433594 163.792969 330.078125 L 167.742188 310.449219 C 185.269531 312.296875 203.109375 311.847656 220.789062 308.914062 L 202.605469 254.976562 C 202.605469 254.976562 151.152344 257.367188 111.910156 233.359375 C 143.832031 240.726562 177.746094 239.695312 210.070312 229.246094 " fill-opacity="1" fill-rule="nonzero"/><path fill="#ffffff" d="M 310.183594 241.621094 L 314.71875 245.617188 C 293.804688 265.816406 268.949219 280.8125 242.203125 290.074219 L 235.804688 271.09375 C 251.910156 263.933594 267.136719 254.625 280.976562 243.246094 L 238.261719 205.625 C 238.261719 205.625 202.488281 228.492188 148.863281 232.265625 C 180.207031 222.6875 209.082031 204.832031 231.863281 179.609375 L 235.320312 175.683594 L 310.183594 241.621094 " fill-opacity="1" fill-rule="nonzero"/><path fill="#ffffff" d="M 89.546875 260.125 C 80.238281 260.125 72.691406 267.671875 72.691406 276.980469 C 72.691406 286.289062 80.238281 293.835938 89.546875 293.835938 C 98.855469 293.835938 106.402344 286.289062 106.402344 276.980469 C 106.402344 267.671875 98.855469 260.125 89.546875 260.125 " fill-opacity="1" fill-rule="nonzero"/><path fill="#ffffff" d="M 188.367188 267.210938 C 180.960938 267.210938 174.953125 273.214844 174.953125 280.621094 C 174.953125 288.027344 180.960938 294.027344 188.367188 294.027344 C 195.773438 294.027344 201.777344 288.027344 201.777344 280.621094 C 201.777344 273.214844 195.773438 267.210938 188.367188 267.210938 " fill-opacity="1" fill-rule="nonzero"/><path fill="#ffffff" d="M 243.34375 225.542969 C 237.035156 225.542969 231.925781 230.65625 231.925781 236.960938 C 231.925781 243.265625 237.035156 248.378906 243.34375 248.378906 C 249.648438 248.378906 254.765625 243.265625 254.765625 236.960938 C 254.765625 230.65625 249.648438 225.542969 243.34375 225.542969 " fill-opacity="1" fill-rule="nonzero"/><g clip-path="url(#4378a10043)"><path fill="#ffffff" d="M 354.488281 270.503906 C 354.488281 274.5 354.34375 278.464844 354.097656 282.402344 C 348.792969 199.042969 288.210938 130.722656 208.605469 113.679688 L 203.480469 112.648438 L 223.148438 14.84375 L 224.339844 8.921875 C 306.949219 32.609375 367.40625 108.710938 367.40625 198.9375 C 367.40625 203.214844 367.257812 207.460938 366.988281 211.667969 C 361.953125 132.488281 310.285156 66.019531 239.160156 39.332031 L 227.9375 95.132812 C 301.453125 119.511719 354.488281 188.804688 354.488281 270.503906 " fill-opacity="1" fill-rule="nonzero"/></g><path fill="#ffffff" d="M 164.914062 145.773438 L 159.960938 147.441406 L 128.09375 52.90625 L 126.164062 47.179688 C 154.378906 40.144531 183.398438 39.585938 211.191406 44.9375 L 207.246094 64.570312 C 189.71875 62.722656 171.878906 63.167969 154.203125 66.105469 L 172.386719 120.042969 C 172.386719 120.042969 223.839844 117.652344 263.078125 141.664062 C 231.15625 134.292969 197.246094 135.324219 164.914062 145.773438 " fill-opacity="1" fill-rule="nonzero"/><path fill="#ffffff" d="M 64.804688 133.398438 L 60.269531 129.402344 C 81.1875 109.203125 106.035156 94.207031 132.789062 84.945312 L 139.183594 103.921875 C 123.082031 111.082031 107.855469 120.390625 94.015625 131.769531 L 136.730469 169.394531 C 136.730469 169.394531 172.503906 146.527344 226.128906 142.753906 C 194.785156 152.332031 165.910156 170.183594 143.128906 195.410156 L 139.667969 199.335938 L 64.804688 133.398438 " fill-opacity="1" fill-rule="nonzero"/><path fill="#ffffff" d="M 285.445312 114.890625 C 294.753906 114.890625 302.296875 107.347656 302.296875 98.039062 C 302.296875 88.730469 294.753906 81.179688 285.445312 81.179688 C 276.136719 81.179688 268.585938 88.730469 268.585938 98.039062 C 268.585938 107.347656 276.136719 114.890625 285.445312 114.890625 " fill-opacity="1" fill-rule="nonzero"/><path fill="#ffffff" d="M 186.625 107.808594 C 194.03125 107.808594 200.03125 101.804688 200.03125 94.398438 C 200.03125 86.992188 194.03125 80.988281 186.625 80.988281 C 179.21875 80.988281 173.214844 86.992188 173.214844 94.398438 C 173.214844 101.804688 179.21875 107.808594 186.625 107.808594 " fill-opacity="1" fill-rule="nonzero"/><path fill="#ffffff" d="M 131.648438 149.476562 C 137.953125 149.476562 143.066406 144.363281 143.066406 138.058594 C 143.066406 131.75 137.953125 126.636719 131.648438 126.636719 C 125.339844 126.636719 120.226562 131.75 120.226562 138.058594 C 120.226562 144.363281 125.339844 149.476562 131.648438 149.476562 " fill-opacity="1" fill-rule="nonzero"/><g clip-path="url(#542f8fd855)"><path fill="#ffffff" d="M 20.5 104.519531 C 20.5 100.519531 20.644531 96.554688 20.894531 92.617188 C 26.199219 175.976562 86.78125 244.292969 166.382812 261.339844 L 171.511719 262.367188 L 151.839844 360.171875 L 150.648438 366.097656 C 68.039062 342.40625 7.582031 266.308594 7.582031 176.082031 C 7.582031 171.804688 7.734375 167.558594 8 163.351562 C 13.039062 242.53125 64.703125 309 135.828125 335.6875 L 147.050781 279.886719 C 73.535156 255.507812 20.5 186.210938 20.5 104.519531 " fill-opacity="1" fill-rule="nonzero"/></g><path fill="#ffffff" d="M 210.070312 229.246094 L 215.027344 227.574219 L 246.894531 322.113281 L 248.824219 327.835938 C 220.609375 334.871094 191.59375 335.433594 163.792969 330.078125 L 167.742188 310.449219 C 185.269531 312.296875 203.109375 311.847656 220.789062 308.914062 L 202.605469 254.976562 C 202.605469 254.976562 151.152344 257.367188 111.910156 233.359375 C 143.832031 240.726562 177.746094 239.695312 210.070312 229.246094 " fill-opacity="1" fill-rule="nonzero"/><path fill="#ffffff" d="M 310.183594 241.621094 L 314.71875 245.617188 C 293.804688 265.816406 268.949219 280.8125 242.203125 290.074219 L 235.804688 271.09375 C 251.910156 263.933594 267.136719 254.625 280.976562 243.246094 L 238.261719 205.625 C 238.261719 205.625 202.488281 228.492188 148.863281 232.265625 C 180.207031 222.6875 209.082031 204.832031 231.863281 179.609375 L 235.320312 175.683594 L 310.183594 241.621094 " fill-opacity="1" fill-rule="nonzero"/><path fill="#ffffff" d="M 89.546875 260.125 C 80.238281 260.125 72.691406 267.671875 72.691406 276.980469 C 72.691406 286.289062 80.238281 293.835938 89.546875 293.835938 C 98.855469 293.835938 106.402344 286.289062 106.402344 276.980469 C 106.402344 267.671875 98.855469 260.125 89.546875 260.125 " fill-opacity="1" fill-rule="nonzero"/><path fill="#ffffff" d="M 188.367188 267.210938 C 180.960938 267.210938 174.953125 273.214844 174.953125 280.621094 C 174.953125 288.027344 180.960938 294.027344 188.367188 294.027344 C 195.773438 294.027344 201.777344 288.027344 201.777344 280.621094 C 201.777344 273.214844 195.773438 267.210938 188.367188 267.210938 " fill-opacity="1" fill-rule="nonzero"/><path fill="#ffffff" d="M 243.34375 225.542969 C 237.035156 225.542969 231.925781 230.65625 231.925781 236.960938 C 231.925781 243.265625 237.035156 248.378906 243.34375 248.378906 C 249.648438 248.378906 254.765625 243.265625 254.765625 236.960938 C 254.765625 230.65625 249.648438 225.542969 243.34375 225.542969 " fill-opacity="1" fill-rule="nonzero"/><g clip-path="url(#2c8d31b4ad)"><path fill="#ffffff" d="M 354.488281 270.503906 C 354.488281 274.5 354.34375 278.464844 354.097656 282.402344 C 348.792969 199.042969 288.210938 130.722656 208.605469 113.679688 L 203.480469 112.648438 L 223.148438 14.84375 L 224.339844 8.921875 C 306.949219 32.609375 367.40625 108.710938 367.40625 198.9375 C 367.40625 203.214844 367.257812 207.460938 366.988281 211.667969 C 361.953125 132.488281 310.285156 66.019531 239.160156 39.332031 L 227.9375 95.132812 C 301.453125 119.511719 354.488281 188.804688 354.488281 270.503906 " fill-opacity="1" fill-rule="nonzero"/></g><path fill="#ffffff" d="M 164.914062 145.773438 L 159.960938 147.441406 L 128.09375 52.90625 L 126.164062 47.179688 C 154.378906 40.144531 183.398438 39.585938 211.191406 44.9375 L 207.246094 64.570312 C 189.71875 62.722656 171.878906 63.167969 154.203125 66.105469 L 172.386719 120.042969 C 172.386719 120.042969 223.839844 117.652344 263.078125 141.664062 C 231.15625 134.292969 197.246094 135.324219 164.914062 145.773438 " fill-opacity="1" fill-rule="nonzero"/><path fill="#ffffff" d="M 64.804688 133.398438 L 60.269531 129.402344 C 81.1875 109.203125 106.035156 94.207031 132.789062 84.945312 L 139.183594 103.921875 C 123.082031 111.082031 107.855469 120.390625 94.015625 131.769531 L 136.730469 169.394531 C 136.730469 169.394531 172.503906 146.527344 226.128906 142.753906 C 194.785156 152.332031 165.910156 170.183594 143.128906 195.410156 L 139.667969 199.335938 L 64.804688 133.398438 " fill-opacity="1" fill-rule="nonzero"/><path fill="#ffffff" d="M 285.445312 114.890625 C 294.753906 114.890625 302.296875 107.347656 302.296875 98.039062 C 302.296875 88.730469 294.753906 81.179688 285.445312 81.179688 C 276.136719 81.179688 268.585938 88.730469 268.585938 98.039062 C 268.585938 107.347656 276.136719 114.890625 285.445312 114.890625 " fill-opacity="1" fill-rule="nonzero"/><path fill="#ffffff" d="M 186.625 107.808594 C 194.03125 107.808594 200.03125 101.804688 200.03125 94.398438 C 200.03125 86.992188 194.03125 80.988281 186.625 80.988281 C 179.21875 80.988281 173.214844 86.992188 173.214844 94.398438 C 173.214844 101.804688 179.21875 107.808594 186.625 107.808594 " fill-opacity="1" fill-rule="nonzero"/><path fill="#ffffff" d="M 131.648438 149.476562 C 137.953125 149.476562 143.066406 144.363281 143.066406 138.058594 C 143.066406 131.75 137.953125 126.636719 131.648438 126.636719 C 125.339844 126.636719 120.226562 131.75 120.226562 138.058594 C 120.226562 144.363281 125.339844 149.476562 131.648438 149.476562 " fill-opacity="1" fill-rule="nonzero"/></svg>